<?xml version="1.0" standalone="no"?>
<!DOCTYPE svg PUBLIC "-//W3C//DTD SVG 20010904//EN"
 "http://www.w3.org/TR/2001/REC-SVG-20010904/DTD/svg10.dtd">
<svg version="1.0" xmlns="http://www.w3.org/2000/svg"
 width="1000.000000pt" height="1000.000000pt" viewBox="0 0 1000.000000 1000.000000"
 preserveAspectRatio="xMidYMid meet">
<metadata>
Created by potrace 1.11, written by Peter Selinger 2001-2013
</metadata>
<g transform="translate(0.000000,1000.000000) scale(0.100000,-0.100000)"
fill="#000000" stroke="none">
<path d="M0 5000 l0 -5000 5000 0 5000 0 0 5000 0 5000 -5000 0 -5000 0 0
-5000z m3742 2363 c203 -406 239 -481 411 -853 200 -435 417 -934 782 -1798
90 -212 100 -231 111 -210 6 13 104 241 217 509 459 1084 737 1698 1080 2382
l190 377 572 0 572 0 6 -37 c60 -380 157 -1289 221 -2073 58 -702 155 -2234
195 -3080 6 -118 13 -245 17 -282 l5 -68 -609 0 -610 0 -6 93 c-3 50 -13 308
-21 572 -31 936 -63 1628 -105 2245 -34 507 -54 750 -61 743 -6 -8 -294 -680
-925 -2158 -169 -396 -314 -737 -322 -758 l-15 -37 -440 2 -440 3 -57 135
c-621 1460 -1204 2820 -1207 2817 -8 -9 -73 -943 -98 -1417 -23 -448 -85
-2035 -85 -2191 l0 -49 -610 0 -610 0 0 28 c0 57 52 1001 85 1557 101 1669
193 2749 316 3685 16 124 31 235 34 248 l5 22 599 0 599 0 204 -407z"/>
</g>
</svg>
